<?xml version="1.0" standalone="no"?>
<!DOCTYPE svg PUBLIC "-//W3C//DTD SVG 20010904//EN"
 "http://www.w3.org/TR/2001/REC-SVG-20010904/DTD/svg10.dtd">
<svg version="1.0" xmlns="http://www.w3.org/2000/svg"
 width="200.000000pt" height="200.000000pt" viewBox="0 0 200.000000 200.000000"
 preserveAspectRatio="xMidYMid meet">
<metadata>
Created by potrace 1.14, written by Peter Selinger 2001-2017
</metadata>
<g transform="translate(0.000000,200.000000) scale(0.100000,-0.100000)"
fill="#000000" stroke="none">
<path d="M500 1914 c-241 -49 -414 -256 -424 -506 -10 -255 192 -494 449 -531
422 -61 734 367 550 755 -98 206 -347 328 -575 282z"/>
<path d="M1109 1023 c0 -10 -1 -43 -2 -73 l-2 -55 -72 -3 -73 -3 0 -148 0
-148 73 1 72 1 3 73 c2 47 7 72 15 73 7 1 35 3 62 4 28 1 55 3 62 3 8 1 11 24
9 68 -1 41 2 68 9 70 6 3 40 6 76 7 l64 2 0 70 0 70 -147 3 c-136 2 -148 1
-149 -15z"/>
<path d="M1705 1028 c-2 -7 -3 -40 -2 -73 l2 -60 35 -2 c19 -1 52 -2 73 -2
l37 -1 0 -70 c0 -38 3 -71 8 -71 4 -1 37 -2 75 -3 l67 -2 0 73 0 73 -52 1
c-29 1 -63 0 -75 -1 -22 -1 -23 2 -23 74 l0 76 -70 0 c-48 0 -72 -4 -75 -12z"/>
<path d="M1579 892 l-26 -3 1 -147 1 -147 68 0 c38 -1 71 3 74 8 4 7 8 230 4
274 -1 11 -74 21 -122 15z"/>
<path d="M960 223 l0 -224 147 3 148 3 1 72 1 73 -74 0 -73 0 0 75 0 74 48 -2
c26 -2 58 0 72 3 24 6 25 10 25 76 l1 70 -148 1 -148 0 0 -224z"/>
<path d="M1559 446 c-1 -1 -3 -101 -4 -223 l-2 -223 74 0 c51 0 73 4 74 13 0
6 1 73 1 147 l0 135 74 3 74 2 0 -150 0 -150 75 0 75 0 0 149 0 149 -52 0
c-107 0 -98 -7 -98 75 l0 73 -145 1 c-80 0 -146 -1 -146 -1z"/>
<path d="M1257 292 c-3 -6 -1 -95 2 -129 1 -9 23 -13 74 -13 l72 0 0 73 0 72
-72 2 c-40 1 -74 -2 -76 -5z"/>
</g>
</svg>
