<svg xmlns:xlink="http://www.w3.org/1999/xlink" xmlns="http://www.w3.org/2000/svg" width="32" height="32" viewBox="0 0 32 32" fill="none">
<path d="M16 27.5L28.9999 11.575L26.075 7.02495L23.3125 5.72495L19.7375 4.75H12.2625L8.68751 5.72495L5.92503 7.02495L3 11.575L16 27.5Z" fill="#6B7AFE"/>
<path d="M17.3851 25.8032L20.55 14.5L24.9375 13.525L20.6279 21.8307L17.3851 25.8032Z" fill="#6171FA"/>
<path d="M20.6279 21.8307L28.9999 11.575L24.9375 13.525L20.6279 21.8307Z" fill="#4153FA"/>
<path d="M14.6151 25.8035L11.4501 14.5H20.5501L17.3853 25.803L16 27.5L14.6151 25.8035Z" fill="#8F9AFF"/>
<path d="M16.0001 14.5L11.4501 9.29996H20.5501L16.0001 14.5Z" fill="#CCD1FF"/>
<path d="M11.3722 21.8309L7.06253 13.525L11.45 14.5L14.6149 25.8032L11.3722 21.8309Z" fill="#4A5BFA"/>
<path d="M16.0001 14.5L11.4501 9.29996V14.5L16.0001 14.5Z" fill="#808CFF"/>
<path d="M3.00006 11.575L11.3722 21.8309L7.06253 13.525L3 11.575L3.00006 11.575Z" fill="#283DFA"/>
<path d="M16 14.5L20.55 9.29996L20.55 14.5H16Z" fill="#A3ACFF"/>
<path d="M11.4501 9.29996L7.22502 7.99996L11.4501 14.5V9.29996Z" fill="#ABB3FF"/>
<path d="M20.5499 9.29996L24.7749 7.99996L20.5499 14.5V9.29996Z" fill="#B5BCFF"/>
<path d="M11.45 14.5L7.22509 7.99996L7.06253 13.525L11.45 14.5ZM20.5499 14.5L24.7749 7.99996L24.9374 13.525L20.5499 14.5Z" fill="#5263FF"/>
<path d="M7.22502 7.99996L3 11.575L7.06253 13.525L7.22502 7.99996ZM24.9374 13.525L28.9999 11.575L24.7749 7.9999L24.9374 13.525Z" fill="#8793FF"/>
<path d="M24.9375 13.525L29 11.575L26.8875 9.78744L24.9375 13.525Z" fill="#A3ACFF"/>
<path d="M7.06253 13.525L3 11.575L5.11251 9.78744L7.06253 13.525Z" fill="#99A3FF"/>
<path d="M3.00006 11.575L5.92503 7.02501L7.22496 8.00015L3 11.575L3.00006 11.575Z" fill="#4A5BFA"/>
<path d="M28.9999 11.575L26.0749 7.02501L24.7749 8.00009L28.9999 11.575Z" fill="#5565FA"/>
<path d="M12.2625 4.75H19.7375L23.3125 5.72495L26.0749 7.02501L24.7749 7.9999L20.5499 9.30654H11.4499L7.22496 8.00015L5.92503 7.02495L8.68751 5.72495L12.2625 4.75Z" fill="#7E8BFF"/>
<path d="M16 27.5L28.9999 11.575L26.075 7.02495L23.3125 5.72495L19.7375 4.75H12.2625L8.68751 5.72495L5.92503 7.02495L3 11.575L16 27.5Z" fill="url(#paint0_linear_1063_36769)"/>
<defs>
<linearGradient id="paint0_linear_1063_36769" x1="-0.0732717" y1="-0.937532" x2="32.0735" y2="31.2091" gradientUnits="userSpaceOnUse">
<stop stop-color="#00FFF0" stop-opacity="0.52"/>
<stop offset="1" stop-color="#4200FF" stop-opacity="0"/>
</linearGradient>
</defs>
</svg>