<?xml version="1.0" standalone="no"?>
<!DOCTYPE svg PUBLIC "-//W3C//DTD SVG 20010904//EN"
 "http://www.w3.org/TR/2001/REC-SVG-20010904/DTD/svg10.dtd">
<svg version="1.0" xmlns="http://www.w3.org/2000/svg"
 width="1020.000000pt" height="935.000000pt" viewBox="0 0 1020.000000 935.000000"
 preserveAspectRatio="xMidYMid meet">

<g transform="translate(0.000000,935.000000) scale(0.100000,-0.100000)"
fill="#000000" stroke="none">
<path d="M0 4675 l0 -4675 5100 0 5100 0 0 4675 0 4675 -5100 0 -5100 0 0
-4675z m4895 1870 c2513 -6 2981 -11 3012 -31 33 -21 55 -70 48 -105 -9 -38
-47 -65 -175 -121 -176 -77 -436 -192 -850 -375 -385 -171 -575 -255 -1393
-617 -218 -97 -417 -181 -442 -187 -81 -20 -138 -8 -310 68 -88 39 -279 124
-425 188 -146 64 -456 201 -690 305 -234 103 -481 213 -550 243 -69 30 -309
136 -534 236 -224 100 -411 181 -415 181 -13 0 -63 53 -72 77 -17 44 8 100 56
126 44 23 90 26 360 22 154 -3 1225 -7 2380 -10z m-2798 -654 c45 -18 288
-126 713 -316 102 -46 547 -244 990 -440 443 -197 837 -373 877 -392 78 -37
107 -65 123 -122 7 -24 13 -514 17 -1461 l5 -1425 -23 -35 c-30 -43 -81 -70
-132 -70 -81 0 -94 13 -265 278 -87 136 -230 357 -317 492 -87 135 -218 337
-290 450 -140 219 -374 582 -681 1060 -105 162 -215 333 -245 380 -30 46 -102
159 -161 250 -59 91 -154 239 -212 330 -58 91 -160 248 -225 350 -329 512
-334 519 -339 571 -4 45 -2 51 31 84 40 40 65 43 134 16z m5966 5 c65 -27 95
-93 72 -157 -6 -19 -87 -151 -180 -294 -255 -394 -752 -1164 -1205 -1867 -57
-90 -150 -233 -205 -318 -56 -85 -120 -184 -143 -220 -23 -36 -91 -141 -151
-235 -60 -93 -131 -204 -157 -245 -27 -41 -109 -169 -184 -285 -75 -115 -185
-286 -245 -380 -129 -202 -128 -200 -184 -237 -73 -46 -153 -31 -198 39 -17
26 -18 103 -27 1436 -4 774 -5 1433 -1 1463 9 74 42 110 142 156 133 61 393
179 493 223 109 48 788 354 870 392 30 14 118 53 195 88 168 75 730 329 870
392 149 68 179 74 238 49z"/>
</g>
</svg>
