<svg xmlns:xlink="http://www.w3.org/1999/xlink" xmlns="http://www.w3.org/2000/svg" width="24" height="24" viewBox="0 0 24 24" id="refresh_loading"><path d="M4.39961 12.5001C4.39961 8.30273 7.80225 4.9001 11.9996 4.9001C14.5562 4.9001 16.8192 6.16248 18.1973 8.1001H16.0004C15.5033 8.1001 15.1004 8.50304 15.1004 9.0001C15.1004 9.49715 15.5033 9.9001 16.0004 9.9001H19.7285C19.7417 9.90039 19.755 9.90039 19.7683 9.9001H20.5004C20.9974 9.9001 21.4004 9.49715 21.4004 9.0001V4.5001C21.4004 4.00304 20.9974 3.6001 20.5004 3.6001C20.0033 3.6001 19.6004 4.00304 19.6004 4.5001V6.96862C17.8918 4.62475 15.1244 3.1001 11.9996 3.1001C6.80813 3.1001 2.59961 7.30862 2.59961 12.5001C2.59961 17.6916 6.80813 21.9001 11.9996 21.9001C16.3913 21.9001 20.0775 18.8892 21.1108 14.8204C21.2332 14.3386 20.9418 13.8489 20.4601 13.7265C19.9783 13.6042 19.4886 13.8956 19.3662 14.3773C18.5307 17.6673 15.5481 20.1001 11.9996 20.1001C7.80225 20.1001 4.39961 16.6975 4.39961 12.5001Z" fill="#FFFFFF"></path><defs><path id="refresh" stroke="none" fill="none" d="M4.39961 12.5001C4.39961 8.30273 7.80225 4.9001 11.9996 4.9001C14.5562 4.9001 16.8192 6.16248 18.1973 8.1001H16.0004C15.5033 8.1001 15.1004 8.50304 15.1004 9.0001C15.1004 9.49715 15.5033 9.9001 16.0004 9.9001H19.7285C19.7417 9.90039 19.755 9.90039 19.7683 9.9001H20.5004C20.9974 9.9001 21.4004 9.49715 21.4004 9.0001V4.5001C21.4004 4.00304 20.9974 3.6001 20.5004 3.6001C20.0033 3.6001 19.6004 4.00304 19.6004 4.5001V6.96862C17.8918 4.62475 15.1244 3.1001 11.9996 3.1001C6.80813 3.1001 2.59961 7.30862 2.59961 12.5001C2.59961 17.6916 6.80813 21.9001 11.9996 21.9001C16.3913 21.9001 20.0775 18.8892 21.1108 14.8204C21.2332 14.3386 20.9418 13.8489 20.4601 13.7265C19.9783 13.6042 19.4886 13.8956 19.3662 14.3773C18.5307 17.6673 15.5481 20.1001 11.9996 20.1001C7.80225 20.1001 4.39961 16.6975 4.39961 12.5001Z"></path><clipPath id="refresh-clip"><use href="#refresh"></use></clipPath><path id="refresh" stroke="none" fill="none" d="M4.39961 12.5001C4.39961 8.30273 7.80225 4.9001 11.9996 4.9001C14.5562 4.9001 16.8192 6.16248 18.1973 8.1001H16.0004C15.5033 8.1001 15.1004 8.50304 15.1004 9.0001C15.1004 9.49715 15.5033 9.9001 16.0004 9.9001H19.7285C19.7417 9.90039 19.755 9.90039 19.7683 9.9001H20.5004C20.9974 9.9001 21.4004 9.49715 21.4004 9.0001V4.5001C21.4004 4.00304 20.9974 3.6001 20.5004 3.6001C20.0033 3.6001 19.6004 4.00304 19.6004 4.5001V6.96862C17.8918 4.62475 15.1244 3.1001 11.9996 3.1001C6.80813 3.1001 2.59961 7.30862 2.59961 12.5001C2.59961 17.6916 6.80813 21.9001 11.9996 21.9001C16.3913 21.9001 20.0775 18.8892 21.1108 14.8204C21.2332 14.3386 20.9418 13.8489 20.4601 13.7265C19.9783 13.6042 19.4886 13.8956 19.3662 14.3773C18.5307 17.6673 15.5481 20.1001 11.9996 20.1001C7.80225 20.1001 4.39961 16.6975 4.39961 12.5001Z"></path></defs><g clip-path="url(#refresh-clip)" fill="#FFFFFF"><circle cx="12" cy="13" r="5" fill="none" stroke="#656A72" stroke-width="16px" stroke-dasharray="30" stroke-dashoffset="-30"><animate id="refresh-animate" begin="0s" attributeName="stroke-dashoffset" values="0;-30" dur="10s" stroke="#656A72" fill="none" stroke-width="16px"></animate></circle></g></svg>